<?xml version="1.0" encoding="utf-8"?>
<!-- Generator: Adobe Illustrator 21.1.0, SVG Export Plug-In . SVG Version: 6.00 Build 0)  -->
<svg version="1.1" id="Layer_1" xmlns="http://www.w3.org/2000/svg" xmlns:xlink="http://www.w3.org/1999/xlink" x="0px" y="0px"
	 viewBox="0 0 236 232" style="enable-background:new 0 0 236 232;" xml:space="preserve">
<style type="text/css">
	.st0{fill:#F68631;}
	.st1{fill:#FFFFFF;}
	.st2{fill:#034A92;}
</style>
<g>
	<circle class="st0" cx="118.5" cy="119.4" r="114.5"/>
	<path class="st1" d="M183.5,206.6c0,0,2.8-9.2-5.5-22.6s-3-24.1-3.2-27.9c-0.2-3.8-2.6-22.2-7.7-31.6c-5.1-9.4-5.8-17.5-5.3-21.7
		c0.4-4.3-0.2-5.3-3-9.4c-2.8-4.1-5.5-7.9-8.3-5.8c-2.8,2.1-10.4,9.2-11.9,11.7c-1.5,2.6-5.8,8.3-5.8,8.3l-2.3-17.5L94,92.8l3,20.9
		c0,0-16.6-7.9-19.2-8.7s-9.6-1.7-10.4,1.3s5.8,12.8,7.9,16c2.1,3.2,2.6,7.9,3.4,10.7s3,9.4,0.9,13.9c-2.1,4.5-1.9,19,0.2,22.2
		c2.1,3.2,8.1,12.4,8.1,12.4s-6.6,6.6-6.2,8.5c0.4,1.9-0.4,10.7-2.3,11.5c-1.9,0.9-9.2,8.1-9.2,8.1s-7.2,4.7-5.5,11.7
		c1.7,7,16.4,32.6,70.4,24.5C188.9,237.5,183.5,206.6,183.5,206.6z"/>
	<path class="st2" d="M100.5,153.5c-2,0.2-3.9,0.9-4.9,1.3c-0.7,0.3-2,0.8-2.3,2.5c-0.3,1.7,0.3,3.5,0.9,5.1
		c0.3,0.8,1.5,3.7,3.7,5.1c1.1,0.7,2.4,1.1,4.2,1.3c0.5,0,1,0.1,1.5,0.1c1.7,0,4.1-0.3,5.7-1.6c0.2-0.1,0.3-0.2,0.4-0.4
		c3-3,0.9-8.5-1.1-10.5C106.7,154.3,103.6,153.2,100.5,153.5z M107,164.3c-0.6,0.5-1.8,0.8-3.3,0.8c-0.4,0-0.8,0-1.2-0.1
		c-1.1-0.1-1.9-0.3-2.5-0.7c-0.8-0.5-1.6-1.7-2.1-3.1c-0.4-1.2-0.7-2.1-0.7-2.7c0,0,0,0,0,0c1.2-0.5,2.4-0.8,3.4-1
		c-1.1,0.6-1.8,1.7-1.8,3c0,1.9,1.6,3.5,3.5,3.5c1.9,0,3.5-1.6,3.5-3.5c0-0.7-0.2-1.4-0.6-2c0.3,0.2,0.6,0.4,0.8,0.6
		C107.1,160.4,107.9,163.4,107,164.3z"/>
	<path class="st2" d="M130.8,152.5c-1.1,1.5-1.8,3.2-1.9,5.2c-0.1,2,0,4.6,1.7,5.6c1.4,0.9,3.1,1.4,5,1.4c1.6,0,3.3-0.4,4.9-1.1
		c1.5-0.7,2.7-1.6,3.6-2.6c1-1.2,1.6-2.7,1.9-4.6c0.8-6.5-0.4-6.9-1.4-7.2C138.3,147.7,133.6,148.9,130.8,152.5z M142,155.9
		c-0.2,1.1-0.5,2-1,2.7c-0.5,0.6-1.2,1.1-2.1,1.5c-2,0.9-4.3,1-5.8,0.1c-0.1-0.4-0.2-1.4-0.1-2.2c0.1-1.2,0.5-2.2,1.1-3.1
		c0.5-0.6,1-1.1,1.7-1.5c-0.7,0.6-1.1,1.5-1.1,2.6c0,1.9,1.6,3.5,3.5,3.5c1.9,0,3.5-1.6,3.5-3.5c0-1.7-1.3-3.2-2.9-3.4
		c1.1-0.1,2.3,0,3.6,0.2C142.1,153.9,142,155.4,142,155.9z"/>
	<path class="st2" d="M181,183.8c-1.4-2.3-2.9-4.7-3.8-6.7c-0.7-1.7-0.6-8.2-0.6-13.9c0.1-6.4,0.1-13.1-0.7-17
		c-1.5-7.5-10.5-30.9-11.5-33.2c-0.2-1.8-0.4-3.2-0.4-3.2c0-1.1-0.2-10.3-0.9-13c-0.8-2.8-4-8.3-7-10c-3.2-1.8-7.9,0.5-8.8,1
		c-0.1,0.1-0.2,0.1-0.3,0.2c-0.1,0.1-3.3,2.6-7.9,8.1c-1,1.2-2.1,2.9-3.3,5.1c-0.8-0.1-1.8-0.1-2.8,0c-0.1,0-0.2,0-0.2,0.1
		l-2.1-45.7c0-0.2,0-0.5,0-0.6c-0.5-3.3-6.1-5.3-14.9-5.3c-3.1,0-6.4,0.3-9.8,0.8c-11.4,1.7-23.1,6.3-22.3,11.5c0,0,0,0,0,0.1
		c0,0,0,0,0,0l10.8,43.1c0,0,0,0,0,0l0.5,1.8c-0.1,0-0.2,0-0.3,0l-0.4,0.1c-1.5,0.3-2.3,0.4-3.4,0.8l-4.5-1l-1.2-0.8
		c-0.1,0-0.1-0.1-0.2-0.1c-4.2-2.1-14.3-6.7-17.5-2.5c-3.3,4.3-0.2,9.4-0.1,9.6l8.7,13.6c0.3,0.4,0.4,0.9,0.4,1.4v1.9
		c0,1.3,0.2,2.6,0.7,3.8l2.1,5.3c0.1,0.3,0.2,0.7,0.1,1.1c-0.8,2.6-3.2,12-2.8,21.3c0.4,9.2,6.8,16.5,9.7,19.4
		c-1.8,2.2-4.8,6.1-5.5,9.2c-0.2,0.8-0.3,1.6-0.5,2.4c-0.5,2.7-1.2,6.1-2.5,7.3c-0.9,0.9-2.5,2.4-4.1,4c-1.7,1.7-4.1,4.1-4.4,4.3
		c-1,0.5-1.3,1.7-0.8,2.6c0.4,0.7,1,1,1.7,1c0.3,0,0.6-0.1,0.9-0.2c0.6-0.3,1.3-1,5.4-5c1.6-1.6,3.1-3.1,4-3.9
		c2.2-2.1,3-5.8,3.7-9.4c0.2-0.8,0.3-1.6,0.5-2.3c0.4-1.9,2.6-5,4.6-7.4c0.2,0.5,0.7,0.8,1.3,0.9l8,0.3c0.3,1.1,0.8,2.2,1.2,3.2
		l-12.4,3c-0.8,0.2-1.3,1-1.1,1.8c0.2,0.7,0.8,1.1,1.4,1.1c0.1,0,0.2,0,0.3,0l13.3-3.2c0.7,1,1.5,1.9,2.4,2.6l-9,5.3
		c-0.7,0.4-0.9,1.3-0.5,2c0.3,0.5,0.8,0.7,1.3,0.7c0.3,0,0.5-0.1,0.7-0.2l10.3-6.1c0.6,0.2,1.2,0.4,1.8,0.5c1.4,0.3,2.8,0.4,4.1,0.4
		c0.2,0,0.4,0,0.6,0c3.4,2.4,6.9,3.6,10.3,3.6c5.9,0,9.6-3.5,11.3-5.4c0.8-0.2,1.6-0.5,2.3-0.9c0.3-0.1,0.6-0.3,0.8-0.5l16.2,6.2
		c0.2,0.1,0.3,0.1,0.5,0.1c0.6,0,1.1-0.4,1.4-0.9c0.3-0.8-0.1-1.6-0.8-1.9l-14.4-5.5c1.3-1.1,2.3-2.3,3-3.7h16.3
		c0.8,0,1.5-0.7,1.5-1.5s-0.7-1.5-1.5-1.5h-15.1c0.3-1,0.4-1.9,0.5-2.7l13.2-4c0.8-0.2,1.2-1.1,1-1.8c-0.2-0.8-1.1-1.2-1.8-1
		l-12,3.7l0.1-0.9c0.1-1.1-0.7-2-1.8-2.1c-1.1-0.1-2,0.7-2.1,1.8l-0.2,2.5l-2.8,0.8c-0.8,0.2-1.2,1.1-1,1.8c0.2,0.6,0.8,1,1.4,1
		c0.1,0,0.3,0,0.4-0.1l1.5-0.5c-0.1,0.5-0.3,1-0.5,1.5h-3.6c-0.8,0-1.5,0.7-1.5,1.5s0.7,1.5,1.5,1.5h1.8c-0.7,0.8-1.6,1.4-2.6,2.1
		l-2.6-1c-0.8-0.3-1.6,0.1-1.9,0.8c-0.2,0.6,0,1.3,0.5,1.7c-3.5,0.4-7-1.3-8.6-2.2l2.8-2.9c0.6-0.6,0.8-1.5,0.6-2.3
		c-0.2-0.8-0.8-1.5-1.6-1.8c-1.2-0.4-2.4-0.5-3.7-0.4c-1.8,0.1-3.3,0.6-4.4,1.4c-0.6,0.4-1,1.1-1.1,1.9c-0.1,0.8,0.2,1.5,0.8,2
		l2.8,2.5c-0.4,0.7-2.1,3-6.3,3.2c-0.6,0.1-1.3,0-1.9,0l0.2-0.1c0.7-0.4,0.9-1.3,0.5-2c-0.4-0.7-1.3-0.9-2-0.5l-2.8,1.7
		c-0.7-0.4-1.3-0.8-1.9-1.5l2.8-0.7c0.8-0.2,1.3-1,1.1-1.8s-1-1.3-1.8-1.1l-4,1c-0.3-0.6-0.7-1.3-0.9-2.1l3.6,0.1c0,0,0,0,0.1,0
		c0.8,0,1.4-0.6,1.5-1.4c0-0.8-0.6-1.5-1.4-1.5l-4.6-0.2c0,0,0,0,0,0c-0.2-1.1-1.2-1.8-2.3-1.6c-0.8,0.1-1.3,0.7-1.5,1.4l-7.2-0.3
		c0.1-0.3,0.2-0.5,0.1-0.8c0-0.5-0.3-1-0.7-1.4c-0.1-0.1-9.3-8-9.7-18c-0.4-8.8,1.9-17.6,2.6-20.1c0.3-1.2,0.3-2.5-0.2-3.6l-2-5.2
		c-0.3-0.7-0.4-1.5-0.4-2.3v-1.9c0-1.2-0.3-2.4-1-3.5l-8.6-13.6c0,0-1.8-3-0.1-5.1c0.9-0.8,6.6,0.6,12.5,3.6l1.4,0.9c0,0,0,0,0,0
		c0,0,0,0,0,0c0.5,0.4,1.2,0.8,1.9,1.3c-2,2.5-2.2,4.8-2,6.3c0.6,4,4.5,7,11.1,8.7c3.4,0.8,7.2,1.2,11.4,1.2c3.3,0,6.8-0.3,10.3-0.8
		c12.1-1.8,22.2-6.3,26.2-11.7c1.5-2.1,2.2-4.3,1.8-6.3c-0.5-3.6-2.9-5.4-5.6-6.5c0.9-1.6,1.7-2.8,2.5-3.7c3.8-4.6,6.6-6.9,7.2-7.4
		c1.7-0.8,4.1-1.4,4.9-1c1.8,1,4.6,5.4,5.2,7.6c0.4,1.7,0.7,8.3,0.8,12.3c0,0,0.2,1.7,0.4,3.8l0,0.2c0.3,2.2,0.6,4.4,0.8,5.3
		c0.1,0.8-0.7,4.4-1.5,7.2c-0.3,1,0.3,2.1,1.3,2.4c0.2,0.1,0.4,0.1,0.5,0.1c0.9,0,1.6-0.6,1.9-1.4c0.2-0.8,0.6-2,0.9-3.4
		c2.9,7.9,6.7,18.4,7.5,22.7c0.7,3.5,0.6,10.3,0.6,16.2c-0.1,8-0.1,13.1,0.9,15.4c1,2.4,2.6,4.9,4.1,7.3c1.2,1.9,2.3,3.6,2.9,4.9
		c1.5,3.5,3,8.3,2.2,11.4c-0.2,1.1,0.4,2.1,1.5,2.3c0.1,0,0.3,0,0.4,0c0.9,0,1.7-0.6,1.9-1.5c1-4.4-0.8-10-2.5-13.8
		C183.4,187.7,182.2,185.8,181,183.8z M121.9,191.7c1.4,0.8,3.7,1.7,6.2,2.2c-1.3,0.8-3,1.4-5.1,1.4c-1.6,0-3.2-0.4-4.6-1
		C120,193.5,121.2,192.5,121.9,191.7z M109.7,110.5c1.6,0,3.3-0.1,5-0.4c7.9-1.2,13.2-4.5,16-7.8l0.2,4.1c0,0,0,0,0,0c0,0,0,0,0,0
		c0.1,0.6-0.1,1.4-0.7,2.1c-2.1,2.8-8.1,5.4-14.9,6.4c-6.8,1-13.2,0.3-16.1-1.8c-0.8-0.6-1.2-1.2-1.3-1.8c0,0,0,0,0,0c0,0,0,0,0-0.1
		l-1-3.9C99.9,109.3,104.4,110.5,109.7,110.5z"/>
	<path class="st2" d="M146,210.9c0.1-1.8,0-3.6-0.4-5.2c-0.5-2.3-0.6-4.7-0.3-7.2c0.1-1.2-0.6-2.3-1.6-2.7c-0.7-0.3-1.4-0.3-2.1,0
		c-4,1.8-8,4.4-11.7,7.8c-1.4-1.1-3.2-1.7-5.1-1.6c-1.8,0.1-3.5,0.9-4.8,2.2c-4.2-2.9-8.4-5-12.6-6.2c-0.8-0.2-1.5-0.1-2.2,0.4
		c-0.9,0.6-1.4,1.8-1.1,2.8c0.6,2.5,0.8,4.9,0.6,7.2c-0.1,1.7,0,3.5,0.3,5.2c0.5,2.2,0.6,4.6,0.3,7.2c-0.1,1,0.3,1.9,1.1,2.4
		c0.5,0.3,1,0.5,1.5,0.5c0.4,0,0.7-0.1,1-0.2c4-1.8,7.9-4.4,11.7-7.8c1.3,1,2.9,1.6,4.6,1.6c0.2,0,0.3,0,0.5,0
		c1.8-0.1,3.5-0.9,4.8-2.2c4.2,2.9,8.4,5,12.6,6.2c0.2,0.1,0.5,0.1,0.7,0.1c0.7,0,1.3-0.3,1.8-0.7c0.7-0.7,1-1.6,0.7-2.5
		C146.1,215.6,145.9,213.2,146,210.9z"/>
	<g>
		<path class="st1" d="M193.5,70.3c0.6,0,1.3-0.3,1.7-0.7l3.2-3.2c0.5-0.5,0.8-1.3,0.7-2.1c-0.1-0.6-0.4-1.2-0.7-1.4
			c-0.5-0.5-1.3-0.8-2-0.7c-0.7,0.1-1.2,0.4-1.4,0.7l-3.2,3.2c-0.5,0.5-0.8,1.3-0.8,2.1c0.1,0.6,0.4,1.2,0.8,1.4
			C192.2,70.1,192.9,70.3,193.5,70.3z"/>
	</g>
	<g>
		<path class="st1" d="M198.4,80c0.5-0.5,0.8-1.3,0.7-2c-0.1-0.6-0.4-1.2-0.7-1.4l-3.2-3.2c-0.6-0.5-1.3-0.8-2.1-0.7
			c-0.7,0.1-1.2,0.4-1.4,0.7c-0.5,0.5-0.8,1.3-0.8,2.1c0.1,0.6,0.4,1.2,0.8,1.4L195,80c0.4,0.4,1.1,0.7,1.7,0.7
			C197.3,80.7,198,80.4,198.4,80z"/>
	</g>
	<g>
		<path class="st1" d="M186.4,72.6c-0.7-0.1-1.5,0.2-2.1,0.7l-3.2,3.2c-0.5,0.5-0.8,1.3-0.8,2.1c0.1,0.7,0.4,1.2,0.8,1.4
			c0.4,0.4,1.1,0.7,1.7,0.7c0.6,0,1.3-0.3,1.7-0.7l3.2-3.2c0.5-0.6,0.8-1.3,0.7-2.1c-0.1-0.6-0.3-1.1-0.7-1.4
			C187.5,72.9,187,72.7,186.4,72.6z"/>
	</g>
	<g>
		<path class="st1" d="M184.7,62.8c-0.5-0.5-1.3-0.8-2.1-0.8c-0.6,0.1-1.2,0.4-1.5,0.9c-0.7,1.1-0.9,2.7,0.1,3.3l3.2,3.2
			c0.4,0.4,1.1,0.7,1.7,0.7c0.6,0,1.3-0.3,1.7-0.7c0.5-0.5,0.8-1.3,0.7-2.1c-0.1-0.6-0.4-1.2-0.7-1.4L184.7,62.8z"/>
	</g>
	<path class="st1" d="M35.7,113.7c4.7,0,8.6-3.8,8.6-8.6c0-4.6-3.9-8.6-8.6-8.6c-4.7,0-8.6,3.9-8.6,8.6
		C27.1,109.8,31,113.7,35.7,113.7z M35.7,101.8c2.1,0,3.5,1.8,3.5,3.5c0,1.7-1.4,3.5-3.5,3.5c-1.9,0-3.5-1.6-3.5-3.5
		C32.2,103.5,33.9,101.8,35.7,101.8z"/>
	<path class="st1" d="M19.8,135.7h17.3c1.4,0,2.4,1.1,2.4,2.4c0,1.4-1.1,2.4-2.4,2.4H19.8c-1.3,0-2.4-1-2.4-2.3
		c-0.1-0.6,0-1.1,0.4-1.6C18.2,136.1,19,135.7,19.8,135.7z"/>
	<path class="st1" d="M19.8,127.2h8c1.4,0,2.4,1.1,2.4,2.4c0,1.4-1.1,2.4-2.4,2.4h-8c-1.4,0-2.4-1.1-2.4-2.4
		C17.3,128.3,18.4,127.2,19.8,127.2z"/>
	<path class="st1" d="M44.5,135.7H50c1.4,0,2.4,1.1,2.4,2.4c0,1.4-1.1,2.4-2.4,2.4h-5.5c-1.3,0-2.4-1-2.4-2.3
		c-0.1-0.6,0-1.1,0.4-1.6C42.9,136.1,43.7,135.7,44.5,135.7z"/>
	<path class="st1" d="M60.6,132.1H35.8c-1.4,0-2.4-1.1-2.4-2.4c0-1.4,1.1-2.4,2.4-2.4h24.7c1.4,0,2.4,1.1,2.4,2.4
		C63,131.1,61.9,132.1,60.6,132.1z"/>
</g>
</svg>
