<?xml version="1.0" encoding="utf-8"?>
<!-- Generator: Adobe Illustrator 21.1.0, SVG Export Plug-In . SVG Version: 6.00 Build 0)  -->
<svg version="1.1" id="Layer_1" xmlns="http://www.w3.org/2000/svg" xmlns:xlink="http://www.w3.org/1999/xlink" x="0px" y="0px"
	 viewBox="0 0 248 62" style="enable-background:new 0 0 248 62;" xml:space="preserve">
<style type="text/css">
	.st0{fill:#E97A04;}
	.st1{fill:#014898;}
</style>
<g>
	<rect x="8.6" y="14.6" class="st0" width="16.9" height="39.1"/>
	<g>
		<g>
			<g>
				<path class="st1" d="M64.8,55.3h11.5c0.3,0,0.6-0.1,0.9-0.2c0.3-0.1,0.5-0.3,0.8-0.6c0.2-0.2,0.4-0.6,0.5-1.1
					c0.2-0.4,0.2-1,0.2-1.8c0-0.3,0-0.7-0.1-1c-0.1-0.3-0.2-0.6-0.3-0.9c-0.2-0.3-0.5-0.5-0.8-0.8c-0.3-0.3-0.8-0.5-1.4-0.7L68,45.6
					c-0.5-0.2-1-0.4-1.4-0.7c-0.5-0.3-0.8-0.5-1.1-0.9c-0.4-0.5-0.7-1-0.8-1.6c-0.1-0.6-0.2-1.1-0.2-1.7c0-0.5,0.1-1.1,0.2-1.8
					c0.1-0.6,0.5-1.2,1.1-1.7c0.3-0.3,0.7-0.5,1.2-0.7c0.5-0.2,1.2-0.3,2-0.3h10.4v1.4H68.9c-0.4,0-0.8,0-1.2,0.2
					c-0.4,0.1-0.7,0.4-1,0.6c-0.3,0.4-0.5,0.7-0.5,1.2c0,0.5-0.1,0.9-0.1,1.2c0,0.4,0,0.7,0,1c0,0.3,0.1,0.6,0.2,0.9
					c0.2,0.2,0.4,0.5,0.7,0.8c0.3,0.2,0.6,0.5,1.1,0.6l8,2.8c0.6,0.2,1.2,0.4,1.7,0.6c0.5,0.2,0.9,0.5,1.3,0.9c0.5,0.4,0.8,1,1,1.6
					c0.2,0.6,0.3,1.2,0.3,1.7c0,0.1,0,0.2,0,0.5c0,0.2-0.1,0.6-0.1,0.9c-0.1,0.3-0.2,0.7-0.3,1.1c-0.1,0.4-0.3,0.8-0.6,1.1
					c-0.2,0.3-0.5,0.5-0.8,0.7c-0.3,0.2-0.6,0.3-0.8,0.4c-0.3,0.1-0.6,0.1-0.9,0.2c-0.3,0-0.6,0-0.8,0H64.8V55.3z"/>
				<path class="st1" d="M95.2,36.1c0.7,0,1.3,0.1,2,0.3c0.7,0.1,1.3,0.4,1.9,0.7c0.6,0.3,1.2,0.7,1.7,1.2c0.6,0.6,1.1,1.2,1.4,1.9
					c0.3,0.7,0.5,1.4,0.7,2.2c0.2,0.7,0.2,1.5,0.3,2.2c0.1,0.7,0.1,1.4,0.1,1.9c0,0.6,0,1.2-0.1,2c-0.1,0.7-0.1,1.4-0.3,2.2
					c-0.2,0.7-0.4,1.5-0.7,2.2c-0.3,0.7-0.8,1.4-1.4,1.9c-0.5,0.5-1.1,1-1.7,1.3c-0.6,0.3-1.3,0.6-1.9,0.7c-0.7,0.2-1.3,0.2-2,0.3
					c-0.7,0-1.3,0-1.8,0c-0.6,0-1.2,0-1.9,0c-0.7-0.1-1.3-0.1-2-0.3c-0.7-0.1-1.3-0.3-1.9-0.7c-0.6-0.3-1.2-0.7-1.8-1.3
					c-0.6-0.5-1-1.2-1.4-1.9c-0.3-0.7-0.6-1.4-0.7-2.2c-0.2-0.7-0.2-1.5-0.3-2.2c0-0.8-0.1-1.4-0.1-2c0-0.6,0-1.3,0.1-1.9
					c0.1-0.7,0.1-1.5,0.3-2.2c0.2-0.7,0.4-1.5,0.7-2.2c0.3-0.7,0.8-1.3,1.4-1.9c0.5-0.5,1.1-1,1.8-1.2c0.6-0.3,1.3-0.5,1.9-0.7
					c0.7-0.2,1.3-0.3,2-0.3c0.7,0,1.3-0.1,1.9-0.1C93.9,36,94.5,36,95.2,36.1z M85.1,48.3c0,0.7,0.1,1.3,0.2,1.9
					c0.1,0.6,0.3,1.2,0.5,1.8c0.3,0.6,0.6,1.1,1,1.6c0.4,0.5,0.9,0.9,1.5,1.1c0.5,0.3,1.1,0.5,1.7,0.6c0.6,0.1,1.2,0.2,1.7,0.2
					c0.6,0,1.1,0,1.6,0c0.5,0,1,0,1.6,0c0.6,0,1.1-0.1,1.7-0.2c0.6-0.2,1.1-0.4,1.7-0.6c0.5-0.2,1-0.6,1.5-1.1c0.4-0.5,0.7-1,1-1.6
					c0.2-0.6,0.4-1.2,0.5-1.8c0.1-0.6,0.2-1.3,0.2-1.9c0-0.6,0-1.3,0-1.8c0-0.6,0-1.2,0-1.8c0-0.6-0.1-1.3-0.2-1.9
					c-0.1-0.7-0.3-1.2-0.5-1.8c-0.2-0.6-0.6-1.1-1-1.5c-0.5-0.5-0.9-0.9-1.5-1.2c-0.5-0.3-1.1-0.5-1.7-0.6c-0.6-0.1-1.1-0.2-1.7-0.2
					c-0.6,0-1.1,0-1.6,0c-0.5,0-1,0-1.6,0c-0.6,0-1.2,0.1-1.7,0.2c-0.6,0.1-1.1,0.3-1.7,0.6c-0.6,0.3-1,0.6-1.5,1.2
					c-0.4,0.4-0.8,0.9-1,1.5c-0.2,0.6-0.4,1.1-0.5,1.8c-0.1,0.6-0.2,1.2-0.2,1.9c0,0.7,0,1.3,0,1.8C85.1,47,85.1,47.6,85.1,48.3z"/>
				<path class="st1" d="M106.8,56.7V38.3c0-0.3,0.1-0.6,0.1-0.9c0.1-0.2,0.3-0.4,0.4-0.6c0.3-0.3,0.6-0.5,0.9-0.5
					c0.3-0.1,0.6-0.1,0.9-0.1H121v1.4h-11.9c-0.1,0-0.2,0-0.3,0c-0.1,0-0.2,0-0.3,0.1c-0.1,0.1-0.1,0.2-0.1,0.3
					c0,0.1-0.1,0.2-0.1,0.3v7.1h9.2v1.4h-9.2l0,9.7H106.8z"/>
				<path class="st1" d="M129.5,56.7v-19H121v-1.4h18.7v1.4h-8.6v19H129.5z"/>
				<path class="st1" d="M150.2,38c0.1-0.2,0.1-0.4,0.2-0.6c0.1-0.2,0.2-0.5,0.4-0.6c0.2-0.2,0.4-0.4,0.6-0.6
					c0.2-0.1,0.5-0.2,0.9-0.2c0.4,0,0.7,0.1,0.9,0.2c0.2,0.2,0.4,0.4,0.6,0.6c0.2,0.2,0.3,0.4,0.4,0.6c0.1,0.2,0.2,0.4,0.2,0.6
					l4.4,16.9c0,0.1,0.1,0.3,0.2,0.4c0.1,0.1,0.2,0.1,0.3,0.1c0.2,0,0.3-0.1,0.3-0.3c0.1-0.2,0.1-0.3,0.1-0.4l4.6-18.5h1.6l-4.8,19
					c-0.2,0.7-0.5,1.2-0.8,1.4c-0.4,0.2-0.7,0.3-1.1,0.3c-0.3,0-0.6-0.1-0.9-0.2c-0.2-0.1-0.4-0.2-0.6-0.4c-0.2-0.1-0.3-0.4-0.4-0.6
					c-0.1-0.2-0.2-0.4-0.2-0.7l-4.5-16.8c0-0.1-0.1-0.2-0.1-0.4c-0.1-0.2-0.2-0.2-0.4-0.2c-0.1,0-0.3,0.1-0.3,0.2
					c-0.1,0.2-0.1,0.3-0.1,0.4l-4.4,16.8c-0.1,0.2-0.1,0.4-0.2,0.7c-0.1,0.2-0.2,0.4-0.4,0.6c-0.1,0.2-0.3,0.3-0.6,0.4
					c-0.2,0.1-0.5,0.2-0.9,0.2c-0.4,0-0.7-0.1-1.1-0.3c-0.4-0.2-0.6-0.7-0.8-1.4l-4.9-19h1.6l4.6,18.5c0,0.1,0.1,0.2,0.2,0.4
					c0,0.2,0.2,0.3,0.4,0.3c0.1,0,0.2-0.1,0.3-0.1c0.1-0.1,0.2-0.3,0.2-0.4L150.2,38z"/>
				<path class="st1" d="M173,38.2c0.1-0.3,0.2-0.5,0.4-0.8c0.1-0.3,0.3-0.5,0.5-0.7c0.2-0.2,0.4-0.3,0.6-0.5
					c0.2-0.1,0.5-0.2,0.8-0.2c0.6,0,1.1,0.2,1.4,0.7c0.3,0.5,0.6,0.9,0.9,1.5l7.8,18.5h-1.7l-2.5-5.9h-11.9l-2.5,5.9h-1.7L173,38.2z
					 M169.9,49.3h10.6l-4.5-10.7c-0.1-0.2-0.2-0.5-0.4-0.7c-0.1-0.3-0.3-0.4-0.5-0.4c-0.2,0-0.4,0.2-0.5,0.4
					c-0.1,0.3-0.2,0.5-0.3,0.7L169.9,49.3z"/>
				<path class="st1" d="M187.1,39.4c0-0.5,0-0.9,0.1-1.3c0.1-0.4,0.3-0.8,0.7-1.2c0.3-0.3,0.7-0.5,1.1-0.6c0.3-0.1,0.7-0.1,1.1-0.1
					h8.6c0.3,0,0.6,0,1,0.1c0.4,0,0.7,0.1,1.1,0.2c0.4,0.1,0.7,0.3,1,0.5c0.3,0.2,0.6,0.6,0.9,0.9c0.4,0.6,0.7,1.3,0.8,2.1
					c0.1,0.8,0.2,1.6,0.2,2.3c0,0.7-0.1,1.3-0.2,2.1c-0.1,0.8-0.3,1.5-0.8,2.2c-0.2,0.3-0.5,0.7-0.8,0.9c-0.3,0.3-0.6,0.5-0.9,0.6
					c-0.3,0.1-0.6,0.2-1,0.3c-0.3,0-0.6,0.1-0.9,0.1h-4.5v0.1l9.6,8.1h-2.3l-9-7.7c-0.2-0.1-0.3-0.2-0.4-0.4
					c-0.1-0.1-0.2-0.3-0.2-0.5v-0.4c0-0.2,0.1-0.4,0.2-0.5c0.1-0.1,0.3-0.2,0.5-0.2h6.3c0.5,0,1-0.1,1.3-0.4
					c0.4-0.2,0.6-0.5,0.8-0.8c0.2-0.2,0.3-0.7,0.4-1.2c0.1-0.5,0.2-1.4,0.2-2.4c0-0.3,0-0.6,0-1c0-0.4-0.1-0.7-0.1-1.1
					c-0.1-0.3-0.1-0.7-0.3-1c-0.1-0.3-0.3-0.5-0.6-0.7c-0.2-0.2-0.4-0.3-0.6-0.4c-0.3-0.1-0.5-0.2-0.7-0.2c-0.2,0-0.4-0.1-0.6-0.1
					c-0.2,0-0.3,0-0.4,0h-8.4c-0.1,0-0.3,0-0.5,0c-0.2,0-0.4,0.1-0.5,0.3c-0.2,0.2-0.3,0.3-0.3,0.5c-0.1,0.2-0.1,0.4-0.1,0.5v17.7
					h-1.6V39.4z"/>
				<path class="st1" d="M210.4,56.7c-0.3,0-0.7,0-1.1,0c-0.4,0-0.7-0.2-1.1-0.6c-0.3-0.3-0.5-0.7-0.5-1.1c-0.1-0.4-0.1-0.8-0.1-1.2
					V39c0-0.7,0.1-1.1,0.3-1.4c0.2-0.3,0.3-0.5,0.4-0.6c0.3-0.4,0.6-0.5,1-0.6c0.4-0.1,0.8-0.1,1.1-0.1h12.1v1.4h-11.8
					c-0.1,0-0.3,0-0.6,0c-0.2,0.1-0.4,0.1-0.5,0.2c-0.1,0.1-0.2,0.4-0.3,0.6c0,0.2,0,0.4,0,0.5v6.6h12.9v1.4h-12.9v7.3
					c0,0.1,0,0.3,0.1,0.4c0.1,0.2,0.1,0.3,0.2,0.4c0.1,0.1,0.3,0.1,0.6,0.2c0.3,0.1,0.5,0.1,0.7,0.1h11.7v1.4H210.4z"/>
			</g>
		</g>
		<g>
			<g>
				<path class="st1" d="M228.5,55.3h14.4v1.4h-14.4V55.3z"/>
			</g>
		</g>
		<g>
			<path class="st1" d="M50.7,41.3c0,0.4,0,0.7,0.1,1.1c0.1,0.4,0.2,0.7,0.3,1.1c0.2,0.3,0.4,0.7,0.7,0.9c0.5,0.4,1.1,0.7,1.8,0.7
				c0.7,0.1,1.2,0.1,1.6,0.1h0.3v-13h-4.8V41.3z"/>
			<path class="st1" d="M52.1,6.2H8.5c-1.9,0-3.5,1.6-3.5,3.5v43.6c0,1.9,1.5,3.5,3.5,3.5h43.6c1.9,0,3.5-1.6,3.5-3.5v-4.6h-1.9
				c-1.3,0-2.4-0.1-3.2-0.4c-0.8-0.2-1.5-0.6-2.1-1.1c-0.6-0.5-1.1-1.1-1.4-1.9c-0.3-0.8-0.5-1.8-0.5-3v-10h-2.7v-3.3h2.7v-6.3h4.3
				v6.3h4.8V9.6C55.6,7.7,54,6.2,52.1,6.2z M43.5,44.5c0,0.4-0.1,0.7-0.2,1.1c-0.1,0.4-0.3,0.8-0.5,1.2c-0.2,0.3-0.5,0.7-0.9,1
				c-0.5,0.4-1,0.6-1.6,0.7c-0.6,0.1-1.1,0.1-1.6,0.1H17.4c-0.9,0-1.6-0.2-2.1-0.6c-0.4-0.3-0.6-0.7-0.7-1.1
				c-0.1-0.4-0.1-0.8-0.1-1.1v-2.3V26.3v-0.2c0-0.2,0-0.4,0-0.6c0-0.2-0.1-0.4-0.2-0.5c-0.1-0.2-0.2-0.3-0.4-0.3c-0.1,0-0.3,0-0.5,0
				H11v-3.3h4.8c0.9,0,1.6,0.2,2.1,0.6c0.4,0.3,0.6,0.7,0.7,1.1c0.1,0.4,0.1,0.8,0.1,1.1v2.3v17.3v0.2c0,0.2,0,0.4,0,0.6
				c0,0.3,0.1,0.4,0.2,0.6c0.1,0.2,0.2,0.3,0.4,0.3c0.1,0,0.3,0,0.5,0l17.4,0c0.2,0,0.5,0,0.8-0.1c0.3,0,0.5-0.2,0.7-0.5
				c0.2-0.2,0.3-0.4,0.3-0.7c0-0.2,0.1-0.4,0.1-0.6c0-0.3,0-0.5-0.1-0.8c-0.1-0.3-0.2-0.5-0.5-0.7c0-0.1-0.2-0.1-0.3-0.2
				c-0.1-0.1-0.3-0.1-0.6-0.2c-0.3-0.1-0.6-0.2-1-0.4c-0.4-0.1-1-0.3-1.7-0.5l-3.8-1c-1-0.3-1.9-0.6-2.6-1c-0.7-0.4-1.3-0.9-1.7-1.4
				c-0.4-0.5-0.7-1.1-0.8-1.7c-0.1-0.6-0.2-1.2-0.2-1.6c0-0.5,0.1-1,0.2-1.6c0.1-0.6,0.4-1.2,0.8-1.7c0.3-0.4,0.6-0.7,1-0.9
				c0.4-0.3,0.8-0.5,1.2-0.6c0.4-0.1,0.8-0.2,1.3-0.2c0.4,0,0.9,0,1.3,0h11.1v3.3H32.1c-0.3,0-0.5,0-0.8,0c-0.3,0-0.5,0.2-0.8,0.4
				c-0.3,0.2-0.4,0.4-0.5,0.6C30,33.5,30,33.8,30,34c0,0.3,0,0.6,0.1,0.8c0,0.2,0.2,0.5,0.5,0.7c0.2,0.1,0.3,0.3,0.6,0.4
				c0.2,0.1,0.5,0.2,0.7,0.2c0.2,0.1,0.4,0.2,0.7,0.3c0.2,0.1,0.4,0.1,0.5,0.1l4.3,1.2c1.2,0.4,2.2,0.7,3,1c0.8,0.3,1.4,0.7,2,1.2
				c0.5,0.6,0.9,1.2,1,1.8c0.1,0.7,0.2,1.2,0.2,1.8C43.5,43.9,43.5,44.2,43.5,44.5z"/>
		</g>
		<g>
			<g>
				<path class="st1" d="M64.5,26.9v-18c0-0.3,0.1-0.7,0.2-1c0.1-0.4,0.3-0.7,0.6-1c0.4-0.3,0.7-0.6,1.1-0.6
					c0.4-0.1,0.8-0.1,1.1-0.1H81v3.1H69.4c-0.1,0-0.3,0-0.4,0c-0.1,0-0.2,0.1-0.4,0.2c-0.1,0.1-0.2,0.2-0.2,0.4c0,0.1,0,0.3,0,0.4
					v4.5h9.2V18h-9.2v8.9H64.5z"/>
				<path class="st1" d="M82.9,26.9V6.2h3.9v20.7H82.9z"/>
				<path class="st1" d="M90.4,9.7c0-0.5,0.1-0.9,0.1-1.4c0.1-0.5,0.3-0.9,0.7-1.3c0.4-0.3,0.8-0.6,1.2-0.7c0.4-0.1,0.9-0.2,1.3-0.2
					h9.8c0.4,0,0.8,0,1.1,0c0.4,0,0.8,0.1,1.2,0.2c0.4,0.1,0.8,0.3,1.1,0.5c0.4,0.3,0.7,0.6,1,1.1c0.5,0.7,0.8,1.4,0.9,2.2
					c0.1,0.8,0.1,1.6,0.1,2.3c0,0.8-0.1,1.5-0.1,2.4c-0.1,0.8-0.3,1.6-0.8,2.4c-0.1,0.3-0.3,0.5-0.5,0.8c-0.2,0.2-0.4,0.5-0.7,0.7
					c-0.3,0.2-0.7,0.4-1.1,0.5c-0.4,0.1-0.9,0.2-1.5,0.2h-2.7v0.2l7.9,7.3h-4.9l-6.8-6.7c-0.2-0.2-0.4-0.5-0.6-0.8
					c-0.2-0.3-0.3-0.6-0.3-0.9V18c0-0.4,0.1-0.8,0.4-1c0.3-0.3,0.7-0.4,1.3-0.4h3.9c0.4,0,0.7,0,1.1-0.1c0.4-0.1,0.7-0.4,1-0.8
					c0.1-0.1,0.2-0.3,0.2-0.6c0-0.3,0.1-0.5,0.1-0.8c0.1-0.3,0.1-0.6,0.1-0.8c0-0.3,0-0.5,0-0.7c0-0.8-0.1-1.5-0.2-1.9
					c-0.1-0.4-0.3-0.7-0.5-1c-0.3-0.3-0.7-0.5-1.1-0.5c-0.4-0.1-0.8-0.1-1.1-0.1h-6.3c-0.2,0-0.4,0-0.6,0c-0.1,0-0.3,0.2-0.5,0.3
					c-0.2,0.2-0.4,0.4-0.4,0.5c0,0.2,0,0.4,0,0.6v16.1h-3.9V9.7z"/>
				<path class="st1" d="M111.5,23.8h11.5c0.5,0,0.8-0.1,1.1-0.3c0.2-0.1,0.4-0.3,0.6-0.6c0.1-0.2,0.2-0.5,0.2-0.7
					c0-0.2,0-0.5,0-0.6c0-0.2,0-0.4-0.1-0.6c0-0.2-0.1-0.4-0.3-0.6c-0.1-0.2-0.4-0.4-0.6-0.6c-0.3-0.2-0.6-0.4-1.1-0.5l-8.1-2.6
					c-0.1,0-0.2-0.1-0.4-0.1c-0.2-0.1-0.4-0.2-0.6-0.3c-0.2-0.1-0.5-0.3-0.7-0.4c-0.3-0.2-0.5-0.4-0.7-0.7c-0.3-0.3-0.5-0.6-0.6-0.9
					c-0.1-0.3-0.2-0.7-0.3-1c-0.1-0.3-0.1-0.7-0.2-1c0-0.3,0-0.7,0-0.9c0-0.7,0.1-1.3,0.2-2c0.2-0.7,0.5-1.3,1.1-1.8
					c0.5-0.5,1.1-0.8,1.7-1c0.6-0.1,1.2-0.2,1.7-0.2h11.9v3.1h-10.6c-0.3,0-0.6,0-0.9,0.1c-0.3,0.1-0.5,0.2-0.8,0.4
					c-0.3,0.2-0.4,0.5-0.5,0.8c0,0.3-0.1,0.6-0.1,0.8c0,0.5,0.1,0.9,0.3,1.3c0.2,0.4,0.8,0.8,1.6,1l7.6,2.4c0.7,0.2,1.3,0.5,1.8,0.7
					c0.5,0.3,0.9,0.5,1.2,0.8c0.3,0.3,0.6,0.6,0.8,1c0.2,0.4,0.3,0.7,0.4,1.1c0.1,0.4,0.2,0.7,0.2,1.1c0,0.3,0,0.6,0,0.9
					c0,0.6-0.1,1.3-0.2,2c-0.1,0.7-0.4,1.3-0.8,1.8c-0.5,0.7-1.1,1.1-1.7,1.3c-0.6,0.2-1.3,0.2-2,0.2h-12.7V23.8z"/>
				<path class="st1" d="M137,26.9V9.3h-8.1V6.2H149v3.1h-8.1v17.6H137z"/>
				<path class="st1" d="M160,26.9c-0.3,0-0.7,0-1-0.1c-0.4-0.1-0.7-0.2-0.9-0.4c-0.2-0.1-0.3-0.3-0.5-0.6c-0.2-0.3-0.2-0.6-0.2-1.1
					V6.2h3.9v16.5c0,0.1,0,0.2,0,0.4c0,0.2,0.1,0.3,0.3,0.4c0.1,0,0.2,0.1,0.3,0.2c0.2,0,0.4,0.1,0.7,0.1h11.4v3.1H160z"/>
				<path class="st1" d="M175,26.9V6.2h3.9v20.7H175z"/>
				<path class="st1" d="M202.3,24.2c0,1-0.3,1.8-0.9,2.2c-0.6,0.5-1.4,0.7-2.2,0.7c-0.6,0-1.2-0.1-1.8-0.3
					c-0.6-0.2-1.1-0.7-1.5-1.4l-8.7-13.8c-0.2-0.2-0.3-0.3-0.3-0.4c0-0.1-0.1-0.1-0.1-0.1c-0.1,0-0.2,0-0.3,0.1
					c-0.1,0.1-0.2,0.2-0.2,0.5v15.2h-3.8V8.8c0-0.9,0.3-1.5,0.9-2c0.5-0.5,1.3-0.7,2.3-0.7c0.9,0,1.6,0.2,2.1,0.5
					c0.5,0.3,0.9,0.7,1.2,1.1l8.8,13.8c0.1,0.2,0.2,0.2,0.2,0.4c0,0.1,0.1,0.2,0.3,0.2c0.2,0,0.3-0.1,0.3-0.2c0-0.1,0-0.2,0-0.3V6.2
					h3.8V24.2z"/>
				<path class="st1" d="M209,26.9c-0.5,0-0.9,0-1.3,0c-0.4-0.1-0.8-0.3-1.1-0.6c-0.4-0.3-0.6-0.7-0.6-1.2c-0.1-0.4-0.1-0.8-0.1-1.2
					V9.2c0-0.4,0.1-0.8,0.2-1.2c0.1-0.3,0.3-0.7,0.5-1c0.3-0.4,0.7-0.6,1.2-0.7c0.5-0.1,0.9-0.1,1.3-0.1h13.3v3.1h-11.2
					c-0.2,0-0.4,0-0.6,0c-0.2,0-0.4,0.1-0.5,0.2c-0.2,0.2-0.3,0.4-0.3,0.5c0,0.2,0,0.3,0,0.5v4.2H222v3.1h-12.3v4.9
					c0,0.4,0.1,0.6,0.3,0.8c0.1,0.1,0.3,0.2,0.5,0.2c0.2,0,0.5,0,0.8,0h11.1v3.1H209z"/>
			</g>
		</g>
	</g>
</g>
</svg>
